<?xml version="1.0" encoding="UTF-8" standalone="no"?>
<!-- Created with Inkscape (http://www.inkscape.org/) -->

<svg
   xmlns:svg="http://www.w3.org/2000/svg"
   xmlns="http://www.w3.org/2000/svg"
   version="1.1"
   width="114.84575"
   height="90.065323"
   id="svg2">
  <defs
     id="defs4">
    <clipPath
       id="clipPath2855">
      <path
         d="M 0,720.523 0,0 l 918.766,0 0,720.523 -918.766,0 z"
         id="path2857" />
    </clipPath>
  </defs>
  <g
     transform="translate(-985.43427,-833.04381)"
     id="layer1">
    <g
       transform="matrix(1.25,0,0,-1.25,985.43427,923.10918)"
       id="g2847">
      <g
         transform="scale(0.1,0.1)"
         id="g2849">
        <g
           id="g2851">
          <g
             clip-path="url(#clipPath2855)"
             id="g2853">
            <path
               d="m 286.898,545.992 c 7.95,45 60.059,73.438 116.418,63.516 56.356,-9.942 95.614,-54.492 87.676,-99.512 -7.941,-45 -60.058,-73.437 -116.418,-63.496 -56.355,9.922 -95.605,54.473 -87.676,99.492"
               id="path2859"
               style="fill:#f36717;fill-opacity:1;fill-rule:nonzero;stroke:none" />
            <path
               d="m 335.492,91.2148 0,342.1402 c 29.336,-11.445 68.145,-15.917 98.938,-6.738 l 0,-243.527 c 5.879,-3.477 28.984,-14.883 58.437,-17.774 178.367,-17.48 306.863,105.625 299.891,253.508 -5.899,125.469 -151.172,224.903 -319.793,252.364 -100.508,21.835 -201.067,14.843 -292.883,-16.622 87.441,48.965 216.848,69.551 300.324,65.45 C 727.465,707.887 918.109,552.633 918.766,367.594 919.41,182.582 723.266,25.5703 482.758,49.9844 406.723,57.6992 374.926,70.3359 335.492,91.2148"
               id="path2861"
               style="fill:#f36717;fill-opacity:1;fill-rule:nonzero;stroke:none" />
            <path
               d="M 212.496,143.949 C 203.434,153.09 18.207,322.125 137.438,528.336 165.492,575.523 247.465,642.75 358.336,661.617 -47.8672,661.441 -84.7031,269.984 127.504,98.7148 141,87.6797 300.719,-64.1367 619.723,31.4297 c 0,0 -231.524,-44.4922 -407.227,112.5193"
               id="path2863"
               style="fill:#656263;fill-opacity:1;fill-rule:nonzero;stroke:none" />
          </g>
        </g>
      </g>
    </g>
  </g>
</svg>
